<svg version="1.1" xmlns="http://www.w3.org/2000/svg" width="800" height="800">
    <defs/>
    <g transform="scale(2,2)">
        <g id="background-7ec0892c">
            <rect fill="none" stroke="none" x="0" y="0" width="400" height="400" class="dcg-svg-background"/>
        </g>
        <g id="background-images-7ec0892c"/>
        <g id="graphpaper-7ec0892c">
            <g id="axis-7ec0892c">
                <g>
                    <g>
                        <path fill="none" stroke="rgb(0,0,0)" class="dcg-svg-tickmark" paint-order="fill stroke markers"
                              d="" stroke-opacity="0.9" stroke-miterlimit="2" stroke-width="1.5" stroke-dasharray=""/>
                    </g>
                </g>
            </g>
        </g>
        <g id="expressions-7ec0892c">
            <g id="sketch-7ec0892c">
                <title>Expression 1</title>
                <path fill="#000000" stroke="none" paint-order="stroke fill markers" d="" fill-opacity="0.4"/>
                <path fill="#000000" stroke="none" paint-order="stroke fill markers" d="" fill-opacity="0.4"/>
                <g>
                    <path fill="none" stroke="#000000" class="dcg-svg-curve" paint-order="fill stroke markers"
                          d=" M 21.4613643281312 204.34719429604374 L 21.4613643281312 204.34719429604374 L 21.588432312011737 209.3613636449703 L 21.99813079833987 214.64679889724687 L 22.61267852783205 219.4182835519137 L 23.432075500488295 224.04198157556883 L 24.456321716308608 228.59087585341902 L 25.68541717529299 233.08817463001554 L 27.119361877441417 237.5420501662105 L 28.75815582275391 241.9547498083614 L 30.70422363281252 246.55399912450824 L 32.85514068603514 251.06104939413524 L 35.31333160400392 255.66808497566643 L 37.97637176513673 260.1634056141247 L 40.94668579101562 264.70631861033974 L 44.22427368164064 269.2631151809825 L 47.80913543701171 273.8066005327171 L 51.701271057128935 278.3141004154203 L 56.00310516357422 282.86994054315824 L 60.61221313476562 287.3355078613829 L 65.63101959228516 291.78419120781905 L 71.05952453613281 296.1806671342534 L 77.00015258789065 300.5652199619204 L 83.24805450439452 304.75756204812683 L 89.7008056640625 308.6903951149702 L 96.35840606689453 312.37141409933173 L 103.22085571289062 315.80492006306497 L 110.28815460205078 318.99245934687934 L 117.45787811279298 321.894106595313 L 124.83245086669922 324.5550704244471 L 132.3094482421875 326.93966706424453 L 139.8888702392578 329.05338743751645 L 147.57071685791016 330.899452634149 L 155.35498809814453 332.47906910787367 L 163.24168395996094 333.7915973183504 L 171.23080444335938 334.83465034465394 L 179.21992492675778 335.59617370698646 L 187.31147003173828 336.08548529805114 L 195.40301513671875 336.29416393114354 L 203.49456024169922 336.2235418178156 L 211.5861053466797 335.87316905206353 L 219.57522583007812 335.2505810540045 L 227.56434631347656 334.3491442507534 L 235.45104217529297 333.1800442240989 L 243.33773803710938 331.72586001787425 L 251.12200927734375 330.00134944450906 L 258.8038558959961 328.006083125694 L 266.3832778930664 325.73764782158946 L 273.75785064697266 323.2284596590727 L 281.0299987792969 320.4433962114278 L 288.09729766845703 317.4194327562965 L 295.06217193603516 314.10785721901124 L 301.8221969604492 310.54978269049843 L 308.37737274169916 306.7423344755177 L 314.72769927978516 302.67958979370064 L 320.87317657470703 298.35180055862224 L 326.7113800048828 293.827568749418 L 332.13988494873047 289.2027196685613 L 337.0562667846679 284.60701256992917 L 341.56295013427734 279.99218263104706 L 345.65993499755854 275.39836751526724 L 349.44964599609375 270.74074919505927 L 352.82965850830084 266.18176874447477 L 355.9023971557617 261.6264796479916 L 358.7702865600586 256.9295898239789 L 361.3309020996094 252.2676260118093 L 363.58424377441406 247.68251919471666 L 365.53031158447266 243.231548097961 L 367.27153015136713 238.71208817250567 L 368.8078994750977 234.11316623336512 L 370.13941955566406 229.41224221353096 L 371.1636657714843 225.0504592749494 L 371.9830627441406 220.7200458705207 L 372.5976104736328 216.47808025515207 L 373.00730895996094 212.49056182622994 L 373.212158203125 209.4286942812965 L 373.34266293064985 204.34719429604374"
                          stroke-linecap="round" stroke-linejoin="round" stroke-miterlimit="10" stroke-width="25"
                          stroke-opacity="0.8" stroke-dasharray=""/>
                </g>
                <g>
                    <path fill="none" stroke="#000000" class="dcg-svg-curve" paint-order="fill stroke markers"
                          d=" M 21.4613643281312 204.34719429604374 L 21.4613643281312 204.34719429604374 L 21.588432312011737 199.33302494711717 L 21.99813079833987 194.04758969484058 L 22.61267852783205 189.27610504017377 L 23.432075500488295 184.65240701651865 L 24.456321716308608 180.10351273866846 L 25.68541717529299 175.6062139620719 L 27.119361877441417 171.15233842587696 L 28.75815582275391 166.73963878372606 L 30.70422363281252 162.1403894675792 L 32.85514068603514 157.6333391979522 L 35.31333160400392 153.02630361642105 L 37.97637176513673 148.5309829779628 L 40.94668579101562 143.9880699817477 L 44.22427368164064 139.43127341110494 L 47.80913543701171 134.88778805937034 L 51.701271057128935 130.3802881766672 L 56.00310516357422 125.82444804892918 L 60.61221313476562 121.35888073070458 L 65.63101959228516 116.91019738426849 L 71.05952453613281 112.5137214578341 L 77.00015258789065 108.1291686301671 L 83.24805450439452 103.93682654396059 L 89.7008056640625 100.00399347711726 L 96.35840606689453 96.32297449275575 L 103.22085571289062 92.88946852902245 L 110.28815460205078 89.70192924520813 L 117.45787811279298 86.80028199677446 L 124.83245086669922 84.1393181676404 L 132.3094482421875 81.75472152784289 L 139.8888702392578 79.64100115457097 L 147.57071685791016 77.79493595793849 L 155.35498809814453 76.21531948421381 L 163.24168395996094 74.90279127373708 L 171.23080444335938 73.85973824743354 L 179.21992492675778 73.09821488510102 L 187.31147003173828 72.60890329403634 L 195.40301513671875 72.40022466094393 L 203.49456024169922 72.47084677427188 L 211.5861053466797 72.821219540024 L 219.57522583007812 73.44380753808292 L 227.56434631347656 74.34524434133414 L 235.45104217529297 75.51434436798854 L 243.33773803710938 76.96852857421322 L 251.12200927734375 78.69303914757836 L 258.8038558959961 80.6883054663935 L 266.3832778930664 82.95674077049796 L 273.75785064697266 85.46592893301477 L 281.0299987792969 88.25099238065962 L 288.09729766845703 91.27495583579099 L 295.06217193603516 94.58653137307624 L 301.8221969604492 98.14460590158905 L 308.37737274169916 101.9520541165698 L 314.72769927978516 106.01479879838683 L 320.87317657470703 110.34258803346523 L 326.7113800048828 114.86681984266949 L 332.13988494873047 119.4916689235261 L 337.0562667846679 124.08737602215831 L 341.56295013427734 128.70220596104042 L 345.65993499755854 133.29602107682024 L 349.44964599609375 137.9536393970282 L 352.82965850830084 142.5126198476127 L 355.9023971557617 147.06790894409585 L 358.7702865600586 151.7647987681085 L 361.3309020996094 156.42676258027814 L 363.58424377441406 161.01186939737082 L 365.53031158447266 165.46284049412645 L 367.27153015136713 169.98230041958178 L 368.8078994750977 174.58122235872236 L 370.13941955566406 179.28214637855652 L 371.1636657714843 183.64392931713806 L 371.9830627441406 187.97434272156679 L 372.5976104736328 192.2163083369354 L 373.00730895996094 196.2038267658575 L 373.212158203125 199.26569431079096 L 373.34266293064985 204.34719429604374"
                          stroke-linecap="round" stroke-linejoin="round" stroke-miterlimit="10" stroke-width="25"
                          stroke-opacity="0.8" stroke-dasharray=""/>
                </g>
            </g>
            <g id="sketch-7ec0892c">
                <title>Expression 2</title>
                <path fill="#000000" stroke="none" paint-order="stroke fill markers" d="" fill-opacity="0.4"/>
                <g>
                    <path fill="none" stroke="#000000" class="dcg-svg-curve" paint-order="fill stroke markers"
                          d=" M 241.38717595470538 182.35461313338632 L 241.38717595470538 182.35461313338632 L 241.38717595470538 138.36945080807146"
                          stroke-linecap="round" stroke-linejoin="round" stroke-miterlimit="10" stroke-width="25"
                          stroke-opacity="0.8" stroke-dasharray=""/>
                </g>
            </g>
            <g id="sketch-7ec0892c">
                <title>Expression 3</title>
                <path fill="#000000" stroke="none" paint-order="stroke fill markers" d="" fill-opacity="0.4"/>
                <g>
                    <path fill="none" stroke="#000000" class="dcg-svg-curve" paint-order="fill stroke markers"
                          d=" M 153.41685130407572 182.35461313338632 L 153.41685130407572 182.35461313338632 L 153.41685130407572 138.36945080807146"
                          stroke-linecap="round" stroke-linejoin="round" stroke-miterlimit="10" stroke-width="25"
                          stroke-opacity="0.8" stroke-dasharray=""/>
                </g>
            </g>
        </g>
        <g id="labels-7ec0892c"/>
    </g>
</svg>
